<svg xmlns="http://www.w3.org/2000/svg" width="480" height="480"><desc>Produced by GNUPLOT 6.0 patchlevel 0</desc><path fill="#0d1117" d="M0 0h480v480H0z"/><path fill="none" stroke="#1F2430" stroke-dasharray="5,8" stroke-width="2" d="M72.53 444h382.29" class="gridline" color="#000"/><g fill="none" stroke="currentColor" color="#000"><path stroke="#E6EDF3" d="M72.53 444h9m373.29 0h-9"/><text fill="#E6EDF3" stroke="none" font-family="Arial" font-size="12" text-anchor="end" transform="translate(64.14 447.9)"><tspan> 0</tspan></text></g><path fill="none" stroke="#1F2430" stroke-dasharray="5,8" stroke-width="2" d="M72.53 396.38h382.29" class="gridline" color="#000"/><g fill="none" stroke="currentColor" color="#000"><path stroke="#E6EDF3" d="M72.53 396.38h9m373.29 0h-9"/><text fill="#E6EDF3" stroke="none" font-family="Arial" font-size="12" text-anchor="end" transform="translate(64.14 400.28)"><tspan> 0.5</tspan></text></g><path fill="none" stroke="#1F2430" stroke-dasharray="5,8" stroke-width="2" d="M72.53 348.75h382.29" class="gridline" color="#000"/><g fill="none" stroke="currentColor" color="#000"><path stroke="#E6EDF3" d="M72.53 348.75h9m373.29 0h-9"/><text fill="#E6EDF3" stroke="none" font-family="Arial" font-size="12" text-anchor="end" transform="translate(64.14 352.65)"><tspan> 1</tspan></text></g><path fill="none" stroke="#1F2430" stroke-dasharray="5,8" stroke-width="2" d="M72.53 301.13h382.29" class="gridline" color="#000"/><g fill="none" stroke="currentColor" color="#000"><path stroke="#E6EDF3" d="M72.53 301.13h9m373.29 0h-9"/><text fill="#E6EDF3" stroke="none" font-family="Arial" font-size="12" text-anchor="end" transform="translate(64.14 305.03)"><tspan> 1.5</tspan></text></g><path fill="none" stroke="#1F2430" stroke-dasharray="5,8" stroke-width="2" d="M72.53 253.5h382.29" class="gridline" color="#000"/><g fill="none" stroke="currentColor" color="#000"><path stroke="#E6EDF3" d="M72.53 253.5h9m373.29 0h-9"/><text fill="#E6EDF3" stroke="none" font-family="Arial" font-size="12" text-anchor="end" transform="translate(64.14 257.4)"><tspan> 2</tspan></text></g><path fill="none" stroke="#1F2430" stroke-dasharray="5,8" stroke-width="2" d="M72.53 205.88h382.29" class="gridline" color="#000"/><g fill="none" stroke="currentColor" color="#000"><path stroke="#E6EDF3" d="M72.53 205.88h9m373.29 0h-9"/><text fill="#E6EDF3" stroke="none" font-family="Arial" font-size="12" text-anchor="end" transform="translate(64.14 209.78)"><tspan> 2.5</tspan></text></g><path fill="none" stroke="#1F2430" stroke-dasharray="5,8" stroke-width="2" d="M72.53 158.26h382.29" class="gridline" color="#000"/><g fill="none" stroke="currentColor" color="#000"><path stroke="#E6EDF3" d="M72.53 158.26h9m373.29 0h-9"/><text fill="#E6EDF3" stroke="none" font-family="Arial" font-size="12" text-anchor="end" transform="translate(64.14 162.16)"><tspan> 3</tspan></text></g><path fill="none" stroke="#1F2430" stroke-dasharray="5,8" stroke-width="2" d="M72.53 110.63h247.42m126.48 0h8.39" class="gridline" color="#000"/><g fill="none" stroke="currentColor" color="#000"><path stroke="#E6EDF3" d="M72.53 110.63h9m373.29 0h-9"/><text fill="#E6EDF3" stroke="none" font-family="Arial" font-size="12" text-anchor="end" transform="translate(64.14 114.53)"><tspan> 3.5</tspan></text></g><path fill="none" stroke="#1F2430" stroke-dasharray="5,8" stroke-width="2" d="M72.53 63.01h382.29" class="gridline" color="#000"/><g fill="none" stroke="currentColor" color="#000"><path stroke="#E6EDF3" d="M72.53 63.01h9m373.29 0h-9"/><text fill="#E6EDF3" stroke="none" font-family="Arial" font-size="12" text-anchor="end" transform="translate(64.14 66.91)"><tspan> 4</tspan></text></g><g fill="none" stroke="currentColor" color="#000"><path stroke="#E6EDF3" d="M148.99 444v-9"/><text fill="#E6EDF3" stroke="none" font-family="Arial" font-size="12" text-anchor="middle" transform="translate(148.99 465.9)"><tspan>RGBA</tspan></text></g><g fill="none" stroke="currentColor" color="#000"><path stroke="#E6EDF3" d="M225.45 444v-9"/><text fill="#E6EDF3" stroke="none" font-family="Arial" font-size="12" text-anchor="middle" transform="translate(225.45 465.9)"><tspan>RGB</tspan></text></g><g fill="none" stroke="currentColor" color="#000"><path stroke="#E6EDF3" d="M301.9 444v-9"/><text fill="#E6EDF3" stroke="none" font-family="Arial" font-size="12" text-anchor="middle" transform="translate(301.9 465.9)"><tspan>YA</tspan></text></g><g fill="none" stroke="currentColor" color="#000"><path stroke="#E6EDF3" d="M378.36 444v-9"/><text fill="#E6EDF3" stroke="none" font-family="Arial" font-size="12" text-anchor="middle" transform="translate(378.36 465.9)"><tspan>Y</tspan></text></g><path fill="none" stroke="#E6EDF3" d="M72.53 63.01V444h382.29V63.01z" color="#000"/><text fill="#E6EDF3" stroke-width="2" color="#000" font-family="Verdana" font-size="14" text-anchor="end" transform="translate(378.69 87.06)"><tspan>pngenc</tspan></text><g fill="none" stroke="currentColor" stroke-width="2" color="#000"><path fill="#73D0FF" stroke="none" d="M388.48 87.76h48.16v-10.5h-48.16z" shape-rendering="crispEdges"/><path stroke="#1A1F29" d="M388.48 87.76h48.16v-10.5h-48.16z"/></g><g fill="none" stroke="currentColor" stroke-width="2" color="#000"><path fill="#73D0FF" stroke="none" d="M123.5 444H149V257.11h-25.5z" shape-rendering="crispEdges"/><path stroke="#1A1F29" d="M123.5 444V257.12h25.49V444z"/></g><g fill="none" stroke="currentColor" stroke-width="2" color="#000"><path fill="#73D0FF" stroke="none" d="M199.96 444h25.5V196.73h-25.5z" shape-rendering="crispEdges"/><path stroke="#1A1F29" d="M199.96 444V196.74h25.49V444z"/></g><g fill="none" stroke="currentColor" stroke-width="2" color="#000"><path fill="#73D0FF" stroke="none" d="M276.42 444h25.49V112.43h-25.49z" shape-rendering="crispEdges"/><path stroke="#1A1F29" d="M276.42 444V112.44h25.48V444z"/></g><g fill="none" stroke="currentColor" stroke-width="2" color="#000"><path fill="#73D0FF" stroke="none" d="M352.88 444h25.49V165.68h-25.49z" shape-rendering="crispEdges"/><path stroke="#1A1F29" d="M352.88 444V165.69h25.48V444z"/></g><text fill="#E6EDF3" stroke-width="2" color="#000" font-family="Verdana" font-size="14" text-anchor="end" transform="translate(378.69 108.06)"><tspan>png</tspan></text><g fill="none" stroke="currentColor" stroke-width="2" color="#000"><path fill="#FFD173" stroke="none" d="M388.48 108.76h48.16v-10.5h-48.16z" shape-rendering="crispEdges"/><path stroke="#1A1F29" d="M388.48 108.76h48.16v-10.5h-48.16z"/></g><g fill="none" stroke="currentColor" stroke-width="2" color="#000"><path fill="#FFD173" stroke="none" d="M148.99 444h25.49v-55.16h-25.49z" shape-rendering="crispEdges"/><path stroke="#1A1F29" d="M148.99 444v-55.15h25.48V444z"/></g><g fill="none" stroke="currentColor" stroke-width="2" color="#000"><path fill="#FFD173" stroke="none" d="M225.45 444h25.49v-45.92h-25.49z" shape-rendering="crispEdges"/><path stroke="#1A1F29" d="M225.45 444v-45.91h25.48V444z"/></g><g fill="none" stroke="currentColor" stroke-width="2" color="#000"><path fill="#FFD173" stroke="none" d="M301.9 444h25.5v-54.02h-25.5z" shape-rendering="crispEdges"/><path stroke="#1A1F29" d="M301.9 444v-54.01h25.49V444z"/></g><g fill="none" stroke="currentColor" stroke-width="2" color="#000"><path fill="#FFD173" stroke="none" d="M378.36 444h25.5v-47.92h-25.5z" shape-rendering="crispEdges"/><path stroke="#1A1F29" d="M378.36 444v-47.91h25.49V444z"/></g><g fill="none" stroke="currentColor" color="#000"><path stroke="#E6EDF3" d="M72.53 63.01V444h382.29V63.01z"/><text fill="#E6EDF3" stroke="none" font-family="Verdana" font-size="18" text-anchor="middle" transform="rotate(-90 137.32 116.19)"><tspan>speed in GB/s (higher is better)</tspan></text></g><text fill="#E6EDF3" color="#000" font-family="Verdana" font-size="18" text-anchor="middle" transform="translate(263.67 32.86)"><tspan>encoding speed</tspan></text></svg>